<svg xmlns="http://www.w3.org/2000/svg" width="970.972" height="719.748" viewBox="0 0 970.972 719.748">
  <g id="login-img" transform="translate(0 0.098)">
    <path id="Path_121" data-name="Path 121" d="M810.469,525.1l7.64-4.715c.726-.46,1.442-.951,2.178-1.411a72.972,72.972,0,0,1-60.525-68.523,72.215,72.215,0,0,1,6.3-33.239A73.1,73.1,0,0,1,812.914,376.8l-.378,30.068,16.517-32.728a.655.655,0,0,1,.2,0,72.962,72.962,0,0,1,76.286,69.485c.061,1.391,0,2.761,0,4.091,5.748-6.556,10.964-13.582,14.421-21.283,7-15.6,7.159-33.259,6.576-54.727-1.1-42.546-2.935-85.409-5.328-128.149a72.921,72.921,0,0,1-64.79-69.024c-.1-2.24-.072-4.439,0-6.627a10.97,10.97,0,0,1,.082-1.636c.143-2.117.338-4.214.665-6.28a5.974,5.974,0,0,1,.184-1.023q.45-2.628,1.074-5.2c.164-.634.317-1.278.491-1.913a55.29,55.29,0,0,1,1.728-5.5c.215-.6.47-1.186.7-1.78.522-1.33,1.084-2.639,1.677-3.938.317-.685.624-1.36.961-2.045.082-.174.153-.348.245-.522h0a72.911,72.911,0,0,1,85.664-37L949.4,140.2l16.364-32.318a72.512,72.512,0,0,1,34.773,78.618h.082c-.112.522-.276,1.023-.4,1.534-.225.961-.47,1.913-.736,2.864-.348,1.217-.736,2.414-1.135,3.61-.307.89-.6,1.8-.941,2.68-.491,1.289-1.023,2.547-1.616,3.8-.327.736-.624,1.483-1.023,2.209q-1.4,2.823-3.068,5.523c-.378.624-.808,1.217-1.207,1.841-.777,1.207-1.565,2.4-2.414,3.569-.522.716-1.084,1.4-1.636,2.107-.8,1.023-1.616,2.045-2.465,2.976-.6.685-1.217,1.36-1.851,2.045-.89.941-1.81,1.851-2.761,2.751-.624.6-1.258,1.207-1.912,1.78-1.074.951-2.2,1.861-3.334,2.751-.573.45-1.125.92-1.718,1.35q-2.588,1.923-5.349,3.61c-.348.2-.716.378-1.023.583-1.534.91-3.068,1.759-4.715,2.557-.685.337-1.4.634-2.107.951-1.319.593-2.649,1.166-4.009,1.688-.788.3-1.6.573-2.4.849-1.34.46-2.7.88-4.091,1.258-.818.225-1.626.45-2.455.644-1.493.358-3.017.655-4.551.91a.52.52,0,0,0-.3.061q1.514,27.041,2.69,54.113a72.921,72.921,0,0,1,101.251-31.654l-12.9,35.336,26.53-25.476A72.757,72.757,0,0,1,1082.5,325.7a71.4,71.4,0,0,1-1.851,20.1,72.931,72.931,0,0,1-134.152,19.872c0,1.831.133,3.672.184,5.5.481,18.941,1.084,42.5-8.356,63.553-6.392,14.267-16.691,25.855-26.867,36.236-6.617,6.76-13.48,13.3-20.516,19.626a72.962,72.962,0,0,1-26.346,21.907q-17.335,13.357-35.9,25.016l-7.517,4.848c-6.944,4.306-14.063,8.724-21.048,13.3,1.227-.123,2.444-.256,3.692-.307a72.993,72.993,0,0,1,71.837,47.486l-45.594,37.115,50.114-11.628a72.993,72.993,0,0,1-104.605,65.711c1.125,1.411,2.26,2.813,3.385,4.214,2.24,2.792,4.469,5.564,6.648,8.315,29.659,37.565,37.923,73.238,23.226,100.433l-17.857-9.655c14.318-26.468-7.159-60.341-21.3-78.2-2.138-2.7-4.326-5.421-6.535-8.182-18.951-23.523-40.429-50.237-39.887-82.975C724.017,578.684,771.973,548.953,810.469,525.1Z" transform="translate(-111.614 -98.18)" fill="#f2f2f2"/>
    <ellipse id="Ellipse_13" data-name="Ellipse 13" cx="465.856" cy="21.477" rx="465.856" ry="21.477" transform="translate(0 676.695)" fill="#3f3d56"/>
    <path id="Path_122" data-name="Path 122" d="M948.991,775.758c3.068-5.635-.409-12.539-4.377-17.571s-8.806-10.227-8.7-16.66c.143-9.2,9.91-14.635,17.724-19.514a86.722,86.722,0,0,0,15.9-12.794,23.307,23.307,0,0,0,4.9-6.545c1.606-3.6,1.565-7.691,1.462-11.639q-.511-19.7-1.943-39.355" transform="translate(-106.779 -85.594)" fill="none" stroke="#3f3d56" stroke-miterlimit="10" stroke-width="4"/>
    <path id="Path_123" data-name="Path 123" d="M988.258,651.3a14.38,14.38,0,0,0-7.159-11.761l-3.211,6.361.092-7.691A14.351,14.351,0,1,0,988.207,651.3Z" transform="translate(-106.241 -85.914)" fill="#57b793"/>
    <path id="Path_124" data-name="Path 124" d="M963.191,746.464a14.318,14.318,0,1,1,.685-11.557l-8.959,7.292,9.859-2.291A14.317,14.317,0,0,1,963.191,746.464Z" transform="translate(-106.773 -83.913)" fill="#57b793"/>
    <path id="Path_125" data-name="Path 125" d="M955.994,719.348A14.318,14.318,0,0,1,941,705.674a14.113,14.113,0,0,1,1.238-6.535,14.38,14.38,0,0,1,9.2-7.957l-.072,5.922,3.252-6.443h0a14.36,14.36,0,1,1,1.34,28.688Z" transform="translate(-106.663 -84.708)" fill="#57b793"/>
    <path id="Path_126" data-name="Path 126" d="M990.064,696.637a14.334,14.334,0,1,1,6.341-26.816l-2.536,6.955,5.216-5.011a14.318,14.318,0,0,1,4.643,9.91,14,14,0,0,1-.368,3.948,14.318,14.318,0,0,1-13.3,11.015Z" transform="translate(-105.888 -85.223)" fill="#57b793"/>
    <path id="Path_127" data-name="Path 127" d="M986.322,654.914c-3.314.368-6.535,1.4-9.859,1.606s-6.975-.593-9.082-3.181c-1.135-1.391-1.7-3.15-2.659-4.664a10.227,10.227,0,0,0-3.61-3.406,14.318,14.318,0,1,0,26.837,9.532C987.4,654.822,986.853,654.863,986.322,654.914Z" transform="translate(-106.237 -85.739)" opacity="0.1"/>
    <path id="Path_128" data-name="Path 128" d="M990.064,696.455A14.318,14.318,0,0,1,976.411,676a10.636,10.636,0,0,1,2.884,2.894c1.023,1.544,1.636,3.324,2.843,4.746,2.23,2.628,6.055,3.487,9.522,3.324s6.8-1.135,10.227-1.452c.47,0,.961-.082,1.442-.092a14.318,14.318,0,0,1-13.265,11.035Z" transform="translate(-105.889 -85.041)" opacity="0.1"/>
    <path id="Path_129" data-name="Path 129" d="M955.994,719.159A14.318,14.318,0,0,1,941,705.485a14.113,14.113,0,0,1,1.238-6.535,11.783,11.783,0,0,1,3.068,2.915c1.115,1.575,1.81,3.385,3.068,4.838,2.424,2.7,6.494,3.651,10.166,3.559s6.975-.951,10.514-1.217a14.38,14.38,0,0,1-13.06,10.115Z" transform="translate(-106.663 -84.519)" opacity="0.1"/>
    <path id="Path_130" data-name="Path 130" d="M963.2,746.261A14.347,14.347,0,1,1,937.028,734.5a14.89,14.89,0,0,1,3.15,2.813c1.36,1.667,2.26,3.549,3.845,5.114,2.935,2.874,7.67,4.091,11.884,4.173a61.517,61.517,0,0,0,7.292-.338Z" transform="translate(-106.782 -83.711)" opacity="0.1"/>
    <path id="Path_131" data-name="Path 131" d="M927.54,766.786s11.322-.348,14.738-2.782,17.386-5.339,18.276-1.432,17.029,19.432,4.234,19.493-29.721-2.045-33.126-4.091S927.54,766.786,927.54,766.786Z" transform="translate(-106.969 -83.116)" fill="#656380"/>
    <path id="Path_132" data-name="Path 132" d="M965.013,780.57c-12.784.1-29.721-2.045-33.126-4.091-2.588-1.575-3.631-7.251-3.968-9.869h-.378s.716,9.133,4.091,11.25,20.332,4.173,33.126,4.091c3.692,0,4.97-1.35,4.9-3.293C969.176,779.814,967.764,780.55,965.013,780.57Z" transform="translate(-106.969 -82.981)" opacity="0.2"/>
    <path id="Path_133" data-name="Path 133" d="M321.08,748.874c-7.425-13.746,1.023-30.58,10.677-42.832s21.477-25,21.222-40.613c-.368-22.439-24.177-35.683-43.2-47.578a210.979,210.979,0,0,1-38.792-31.183c-4.674-4.776-9.2-9.87-11.925-15.965-3.927-8.775-3.825-18.747-3.569-28.36q1.227-48.069,4.745-95.953" transform="translate(-122.25 -90.261)" fill="none" stroke="#3f3d56" stroke-miterlimit="10" stroke-width="4"/>
    <path id="Path_134" data-name="Path 134" d="M224.761,445.421a34.988,34.988,0,0,1,17.468-28.637l7.834,15.494-.235-18.757a35,35,0,1,1-25.067,31.93Z" transform="translate(-122.948 -91.041)" fill="#57b793"/>
    <path id="Path_135" data-name="Path 135" d="M285.866,677.372a34.978,34.978,0,0,0,66.058-14.318,34.528,34.528,0,0,0-2.281-14.2,35,35,0,0,0-65.455.378l21.856,17.775L282,661.417A34.6,34.6,0,0,0,285.866,677.372Z" transform="translate(-121.645 -86.167)" fill="#57b793"/>
    <path id="Path_136" data-name="Path 136" d="M303.411,611.375a35,35,0,0,0,11.1-68.646l.184,14.41-7.875-15.679h-.092a35,35,0,1,0-3.263,69.924Z" transform="translate(-121.916 -88.1)" fill="#57b793"/>
    <path id="Path_137" data-name="Path 137" d="M220.352,556.105a35,35,0,1,0-15.464-65.455l6.136,16.947-12.672-12.242A34.834,34.834,0,0,0,187,519.512a34.129,34.129,0,0,0,.89,9.634,34.988,34.988,0,0,0,32.462,26.959Z" transform="translate(-123.806 -89.357)" fill="#57b793"/>
    <path id="Path_138" data-name="Path 138" d="M229.449,454.323c8.08.89,15.934,3.4,24.034,3.9s17.008-1.432,22.132-7.732c2.761-3.4,4.142-7.691,6.474-11.393a24.832,24.832,0,0,1,8.816-8.294,35,35,0,1,1-65.455,23.226C226.81,454.088,228.14,454.18,229.449,454.323Z" transform="translate(-122.931 -90.616)" opacity="0.1"/>
    <path id="Path_139" data-name="Path 139" d="M220.331,555.659a35.018,35.018,0,0,0,33.29-49.91,25.886,25.886,0,0,0-7.036,7.036c-2.5,3.764-4,8.11-6.934,11.567-5.451,6.4-14.758,8.5-23.206,8.12s-16.6-2.792-25.006-3.559c-1.166-.1-2.352-.184-3.528-.215a34.988,34.988,0,0,0,32.421,26.959Z" transform="translate(-123.784 -88.911)" opacity="0.1"/>
    <path id="Path_140" data-name="Path 140" d="M303.377,610.915a34.988,34.988,0,0,0,33.566-49.265,28.3,28.3,0,0,0-7.394,7.159c-2.72,3.835-4.418,8.253-7.6,11.792-5.9,6.576-15.822,8.9-24.771,8.683-8.663-.184-17.008-2.311-25.62-2.976a35.018,35.018,0,0,0,31.817,24.607Z" transform="translate(-121.883 -87.641)" opacity="0.1"/>
    <path id="Path_141" data-name="Path 141" d="M285.78,676.874a34.978,34.978,0,0,0,66.058-14.318,34.528,34.528,0,0,0-2.281-14.2,35.041,35.041,0,0,0-7.67,6.842c-3.324,4.091-5.523,8.652-9.368,12.436-7.159,7.016-18.706,9.921-28.984,10.227a150.093,150.093,0,0,1-17.755-.992Z" transform="translate(-121.559 -85.669)" opacity="0.1"/>
    <path id="Path_142" data-name="Path 142" d="M436.927,667.5l-135,27.614-3.068-.307L180.22,682.838V532.5L325.448,507.95,430.79,520.223l.031.665.01.327Z" transform="translate(4.097 11.551)" fill="#17b0c3"/>
    <path id="Path_143" data-name="Path 143" d="M434.289,667.209l-135,27.614-3.068-.307V540.39L428.184,520.6Z" transform="translate(6.735 11.838)" opacity="0.1"/>
    <path id="Path_144" data-name="Path 144" d="M430.831,521.215l-.041.031L298.857,540.677,180.22,532.5,325.448,507.95,430.79,520.223l.031.665Z" transform="translate(4.097 11.551)" opacity="0.05"/>
    <path id="Path_145" data-name="Path 145" d="M581.927,673.5l-135,27.614-3.068-.307L325.22,688.838V538.5L470.448,513.95,575.79,526.223l.031.665.01.327Z" transform="translate(7.394 11.687)" fill="#f05b8a"/>
    <path id="Path_146" data-name="Path 146" d="M579.289,673.209l-135,27.614-3.068-.307V546.39L573.184,526.6Z" transform="translate(10.031 11.975)" opacity="0.1"/>
    <path id="Path_147" data-name="Path 147" d="M575.831,527.215l-.041.031L443.857,546.678,325.22,538.5,470.448,513.95,575.79,526.223l.031.665Z" transform="translate(7.394 11.687)" opacity="0.05"/>
    <path id="Path_148" data-name="Path 148" d="M490.927,529.5l-135,27.614-3.068-.307L234.22,544.838V394.5L379.448,369.95,484.79,382.223l.031.665.01.327Z" transform="translate(5.325 8.413)" fill="#f8b64d"/>
    <path id="Path_149" data-name="Path 149" d="M488.289,529.209l-135,27.614-3.068-.307V402.39L482.184,382.6Z" transform="translate(7.962 8.701)" opacity="0.1"/>
    <path id="Path_150" data-name="Path 150" d="M484.831,383.215l-.041.031L352.857,402.678,234.22,394.5,379.448,369.95,484.79,382.223l.031.665Z" transform="translate(5.325 8.413)" opacity="0.05"/>
    <path id="Path_151" data-name="Path 151" d="M563.2,533.961l-70.456,14.421-1.606-.164-61.916-6.249V463.5l75.795-12.815L560,457.1l.02.348v.164Z" transform="translate(9.758 10.249)" fill="#17b0c3"/>
    <path id="Path_152" data-name="Path 152" d="M561.822,533.811l-70.456,14.421-1.606-.164V467.63l68.881-10.33Z" transform="translate(11.135 10.399)" opacity="0.1"/>
    <path id="Path_153" data-name="Path 153" d="M560.018,457.614l-.02.02L491.136,467.78,429.22,463.5l75.795-12.815L560,457.1l.02.348Z" transform="translate(9.758 10.249)" opacity="0.05"/>
    <path id="Path_154" data-name="Path 154" d="M378.2,384.961l-70.456,14.41-1.606-.153-61.916-6.249V314.5l75.795-12.815L375,308.1l.02.348v.164Z" transform="translate(5.552 6.861)" fill="#f05b8a"/>
    <path id="Path_155" data-name="Path 155" d="M376.822,384.811l-70.456,14.41-1.606-.153V318.63l68.881-10.33Z" transform="translate(6.929 7.012)" opacity="0.1"/>
    <path id="Path_156" data-name="Path 156" d="M375.018,308.614l-.02.02L306.136,318.78,244.22,314.5l75.795-12.815L375,308.1l.02.348Z" transform="translate(5.552 6.861)" opacity="0.05"/>
    <path id="Path_157" data-name="Path 157" d="M499.2,381.961l-70.456,14.41-1.606-.153-61.916-6.249V311.5l75.795-12.815L496,305.1l.02.348v.164Z" transform="translate(8.303 6.793)" fill="#17b0c3"/>
    <path id="Path_158" data-name="Path 158" d="M497.822,381.811l-70.456,14.41-1.606-.153V315.63l68.881-10.33Z" transform="translate(9.68 6.943)" opacity="0.1"/>
    <path id="Path_159" data-name="Path 159" d="M496.018,305.614l-.02.02L427.136,315.78,365.22,311.5l75.795-12.815L496,305.1l.02.348Z" transform="translate(8.303 6.793)" opacity="0.05"/>
    <path id="Path_160" data-name="Path 160" d="M535.2,304.961l-70.456,14.41-1.606-.153-61.916-6.249V234.5l75.795-12.815L532,228.1l.02.348v.164Z" transform="translate(9.122 5.042)" fill="#f05b8a"/>
    <path id="Path_161" data-name="Path 161" d="M533.822,304.811l-70.456,14.41-1.606-.153V238.63l68.881-10.33Z" transform="translate(10.498 5.193)" opacity="0.1"/>
    <path id="Path_162" data-name="Path 162" d="M532.018,228.614l-.02.02L463.136,238.78,401.22,234.5l75.795-12.815L532,228.1l.02.348Z" transform="translate(9.122 5.042)" opacity="0.05"/>
    <path id="Path_163" data-name="Path 163" d="M704.539,244.913c-.747,6.648-5.819,12.007-7.7,18.409-2.823,9.665,2.045,20.046,8.755,27.614a61.129,61.129,0,0,0,42.566,20.189,18.316,18.316,0,0,0,7.036-.767,15.279,15.279,0,0,0,5.349-3.661c5.032-5.063,7.742-12.068,8.816-19.135s.665-14.257.245-21.385a12.1,12.1,0,0,0-.8-4.316,10.964,10.964,0,0,0-2.772-3.406,64.429,64.429,0,0,0-11.915-8.663c-1.841-1.023-3.815-2.045-4.991-3.815a12.487,12.487,0,0,1-1.544-4.572l-1.319-6.709a13.152,13.152,0,0,0-1.933-5.441c-2.322-3.13-6.771-3.559-10.667-3.713l-14.318-.562c-4.449-.174-10.3-1.452-14.646-.573-4.091.808-2.71,4.551-1.974,7.947A57.464,57.464,0,0,1,704.539,244.913Z" transform="translate(-112.232 -95.315)" fill="#ffc0c6"/>
    <path id="Path_164" data-name="Path 164" d="M704.539,244.913c-.747,6.648-5.819,12.007-7.7,18.409-2.823,9.665,2.045,20.046,8.755,27.614a61.129,61.129,0,0,0,42.566,20.189,18.316,18.316,0,0,0,7.036-.767,15.279,15.279,0,0,0,5.349-3.661c5.032-5.063,7.742-12.068,8.816-19.135s.665-14.257.245-21.385a12.1,12.1,0,0,0-.8-4.316,10.964,10.964,0,0,0-2.772-3.406,64.429,64.429,0,0,0-11.915-8.663c-1.841-1.023-3.815-2.045-4.991-3.815a12.487,12.487,0,0,1-1.544-4.572l-1.319-6.709a13.152,13.152,0,0,0-1.933-5.441c-2.322-3.13-6.771-3.559-10.667-3.713l-14.318-.562c-4.449-.174-10.3-1.452-14.646-.573-4.091.808-2.71,4.551-1.974,7.947A57.464,57.464,0,0,1,704.539,244.913Z" transform="translate(-112.232 -95.315)" opacity="0.1"/>
    <path id="Path_165" data-name="Path 165" d="M794.912,537.942l-6.075,66.6c-1.585,17.468-3.2,35.008-6.31,52.252-1.023,5.942-2.332,11.854-3.825,17.714-4.152,16.272-10.176,32.175-12.119,48.856-.061.481-.112,1.023-.164,1.463-.4,3.682-.747,7.4-2.045,10.841-1.023,2.547-2.465,4.868-3.518,7.384-2.045,5.032-2.373,10.6-2.628,16.047a69.177,69.177,0,0,0-23.82-8.182c-4.091-.6-8.54-1.023-11.25-4.091-3.068-3.334-2.71-8.438-2.2-12.917q2.414-20.864,4.807-41.707a108.7,108.7,0,0,1,3.068-17.714c.552-1.933,1.217-3.835,1.892-5.738.931-2.618,1.872-5.236,2.577-7.926a95.452,95.452,0,0,0,2.025-13.122c1.647-13.991,3.631-27.951,5.369-41.932l.092-.736c2.608-21.191,4.592-42.484,4.019-63.829-.082-3.16-.215-6.32-.419-9.491-.286-4.592-.706-7.026,3.068-9.9,4.2-3.17,9.737-5.39,14.543-7.466,2.588-1.125,31.081-11.25,31.7-9.021a55.529,55.529,0,0,1,2.045,14.543,161.814,161.814,0,0,1-.839,18.072Z" transform="translate(-111.673 -88.928)" fill="#605d82"/>
    <path id="Path_166" data-name="Path 166" d="M782.3,654.571c-1.023,5.942-2.332,11.854-3.825,17.714-4.152,16.272-10.176,32.175-12.119,48.856-.061.481-.112,1.023-.164,1.463-12.7-18.143-23.4-37.657-35.8-55.995.931-2.618,1.872-5.236,2.577-7.926a95.466,95.466,0,0,0,2.127-13.2c1.647-13.991,3.631-27.951,5.369-41.932l.092-.736a43.432,43.432,0,0,0,3.068,8.6c8.325,16.916,28.1,25.466,37.78,41.656Q781.895,653.824,782.3,654.571Z" transform="translate(-111.451 -86.705)" opacity="0.1"/>
    <path id="Path_167" data-name="Path 167" d="M680.371,509.831c.419,13.561,2.588,27.01,4.756,40.408l4.469,27.614c2.444,15.136,5,30.57,12.16,44.121,5.359,10.146,13.071,18.8,20.056,27.89,17.161,22.357,30.058,47.69,46.33,70.7,4.735,6.689,11.5,13.93,19.565,12.529,5.3-.91,9.143-5.328,13.3-8.724,4.909-4.009,10.821-6.944,14.686-11.976s4.623-13.377-.614-16.957c-1.79-1.217-3.968-1.677-5.993-2.455-8.11-3.068-13.367-11-16.7-19.023s-5.369-16.619-9.818-24.075c-9.675-16.19-29.465-24.74-37.79-41.666-4.664-9.471-5.114-20.455-5.461-30.958l-.91-26.908c-.1-2.945-.174-6,1.023-8.693,3.181-7.159,12.794-7.834,20.588-8.744a70.315,70.315,0,0,0,25.231-7.957c4.49-2.424,8.867-5.513,11.25-10.013,2.189-4.091,2.485-8.908,2.741-13.551l2.7-48.774c.235-4.193.44-8.54-1.023-12.467-3.713-9.88-16.19-13.111-26.734-12.641-19.616.88-37.718,9.317-56.25,15.024a143.745,143.745,0,0,1-13.94,3.631c-4.091.828-9.2.491-13.132,1.82-7.036,2.373-6.863,17.775-7.855,24.157A202.791,202.791,0,0,0,680.371,509.831Z" transform="translate(-112.589 -90.691)" fill="#605d82"/>
    <path id="Path_168" data-name="Path 168" d="M782.807,729.021c1.728,1.749,2.291,4.306,2.741,6.719a229.249,229.249,0,0,1,3.886,40.613,6.73,6.73,0,0,0,.726,3.682,4.7,4.7,0,0,0,1.912,1.534c5,2.383,10.8-.941,14.973-4.592,7.722-6.76,14.257-15.842,14.7-26.1.112-2.639-.184-5.308.276-7.916.675-3.866,2.935-7.231,4.919-10.606a90.049,90.049,0,0,0,8.182-18.225c.757-2.393,1.268-5.4-.614-7.067a6.577,6.577,0,0,0-2.219-1.156l-22.6-8.387c-1.964-.726-6.832,11.782-7.6,13.152-1.892,3.344-3.774,5.236-7.568,6.014s-8.478-.348-12.1,1.585C776.282,721.534,779.34,725.533,782.807,729.021Z" transform="translate(-110.348 -84.552)" fill="#535070"/>
    <path id="Path_169" data-name="Path 169" d="M749.211,735.957a6.884,6.884,0,0,0-1.718-2.179,7.7,7.7,0,0,0-3.467-1.176c-4.3-.736-9.389-1.217-12.365,1.984-2.782,3-2.3,7.875-4.623,11.25a34.98,34.98,0,0,0-2.373,3.068,11.516,11.516,0,0,0-1.023,5.5c-.123,5.206-.245,10.432.123,15.627.3,4.357,1.023,8.928,3.753,12.344,4.377,5.482,12.273,6.269,19.268,6.617l5.676.3a11.249,11.249,0,0,0,4.643-.429,7.619,7.619,0,0,0,4.009-4.408c2.956-7.343-1.718-15.249-4.6-22.613C753.19,753.364,753.783,743.965,749.211,735.957Z" transform="translate(-111.607 -83.766)" fill="#535070"/>
    <path id="Path_170" data-name="Path 170" d="M703.182,208.7a4.632,4.632,0,0,1,.317-2.189c.828-1.462,3-1.023,4.633-.655,6.576,1.657,13.51.153,20.291.542s14.41,3.774,15.771,10.422A49.307,49.307,0,0,0,756.7,203.97c1.882-2.812,3.518-6.034,3.263-9.409-.368-4.868-4.449-8.509-8.182-11.6l-11.25-9.2a17.09,17.09,0,0,0-5.052-3.211c-2.6-.89-5.441-.46-8.182-.46-8.182,0-16.957-3.733-24.249,0-3.068,1.565-5.349,4.255-7.558,6.873l-10.053,11.9a6.351,6.351,0,0,0-1.616,2.731c-.286,1.452.46,2.884.726,4.347.47,2.659-.675,5.5.2,8.059,1.463,4.234,6.617,4.838,9.767,7.272,1.166.9,3.007,3.978,4.408,3.938C701.392,215.159,703.11,210.659,703.182,208.7Z" transform="translate(-112.511 -96.581)" fill="#3f3d56"/>
    <circle id="Ellipse_14" data-name="Ellipse 14" cx="32.216" cy="32.216" r="32.216" transform="translate(575.514 82.793)" fill="#ffc0c6"/>
    <path id="Path_171" data-name="Path 171" d="M728.534,280.331a15.607,15.607,0,0,0-15.147-10.452,4.551,4.551,0,0,1-2.8-.358,3.876,3.876,0,0,1-1.156-1.432,57,57,0,0,1-4.694-11.107c-.511-1.708-1.217-3.723-2.946-4.163-1.391-.358-2.812.542-3.743,1.636a35.8,35.8,0,0,1-2.68,3.365c-4.091,3.62-11.25.317-15.535,3.641-.706.542-1.289,1.237-2.045,1.739a9.308,9.308,0,0,1-2.362,1.023A226.425,226.425,0,0,0,651,273.765c2.864,17.223,5.789,34.773,12.5,50.881,3.191,7.671,6.8,15.188,9.358,23.093,5.666,17.519,5.911,36.266,5.983,54.686,0,12.6,0,25.466-4.091,37.391-.92,2.7-2.045,5.38-2.3,8.182s.583,5.973,2.884,7.65a9.726,9.726,0,0,0,4.449,1.565c7.067,1.023,14.185-.839,21.14-2.455,18.644-4.316,37.667-6.791,56.639-9.2l31.807-4.091a18.6,18.6,0,0,0,6.586-1.708c5.819-3.181,6.372-11.935,2.751-17.5-1.728-2.669-4.173-4.858-5.635-7.681s-1.575-6.791.931-8.744c5.114-3.989,3.58-11.383,3.825-17.847q1.023-27.123-.276-54.2a106.07,106.07,0,0,1-.184-11.25c.358-6.361,1.933-12.59,3.508-18.777l9.665-38.046c-2.526-3.989-7.364-6.525-11.935-7.671s-9.348-1.483-13.858-2.884c-9.2-2.864-17.468-10.125-27.113-9.45a4.961,4.961,0,0,0-2.107.511c-2.168,1.237-1.831,4.367-1.964,6.863-.307,5.533-4.377,10.146-8.857,13.388s-9.614,5.594-13.735,9.286a6.136,6.136,0,0,0-2.434,4.582Z" transform="translate(-113.256 -94.825)" fill="#3f3d56"/>
    <path id="Path_172" data-name="Path 172" d="M602.381,315.117a37.84,37.84,0,0,1-6.77,3.488c-2.25.89-4.654,1.6-6.494,3.15a10.278,10.278,0,0,0-2.26,2.792,12.406,12.406,0,0,0,11.434,18.481c2.956-.153,5.748-1.35,8.458-2.526l22.725-9.89c3.846-1.667,8-3.61,9.818-7.394a1.78,1.78,0,0,0,.225-1.176,1.933,1.933,0,0,0-.941-1.023,50.9,50.9,0,0,1-13.224-12.477c-.931-1.268-2.045-4.255-3.4-5.022C617.149,300.849,606.236,312.621,602.381,315.117Z" transform="translate(-114.751 -93.518)" fill="#ffc0c6"/>
    <path id="Path_173" data-name="Path 173" d="M840.726,307l8.376,9.573c1.8,2.045,3.6,4.091,5.236,6.3a73.3,73.3,0,0,1,9.593,18.072c1.82,4.776,3.334,9.869,2.7,14.942a36.813,36.813,0,0,1-2.1,7.6,93.965,93.965,0,0,1-5.7,13.7,77.992,77.992,0,0,1-6.372,9.583,224.068,224.068,0,0,1-21.242,24.29c-2.864,2.833-4.091,7.425-5.308,11.25-2.3,7.067-7.773,12.58-13.06,17.8a35.985,35.985,0,0,1-5.615,4.827,18.2,18.2,0,0,1-10.227,2.9,11.25,11.25,0,0,1-4.592-.951c-3.621-1.718-5.461-5.9-5.84-9.89a21.17,21.17,0,0,1,1.759-10.6c4.807-10.647,17.151-15.259,25.875-23.032,5.114-4.551,9.031-10.278,12.9-15.934a55.279,55.279,0,0,0,6.515-11.424c1.943-5.206,1.186-11.363,2.894-16.64.716-2.24,2.045-4.255,2.772-6.474s.972-4.848-.389-6.76a9.767,9.767,0,0,0-3.794-2.782c-5.574-2.823-11.812-6.464-12.876-12.631a13.521,13.521,0,0,1,2.5-9.644,39.89,39.89,0,0,1,7.026-7.364C834.18,311.531,838.281,309.107,840.726,307Z" transform="translate(-110.175 -93.43)" fill="#ffc0c6"/>
    <path id="Path_174" data-name="Path 174" d="M597.6,328.1c-1.473-2.986-3.324-6.034-6.31-7.517a11.619,11.619,0,0,0-9.2,0,34.9,34.9,0,0,0-8.059,4.868l-7.221,5.328a17.767,17.767,0,0,0-4.285,3.958,16.477,16.477,0,0,0-2.23,6.136c-1.023,4.981-1.851,10.1-1.135,15.147,1.145,8.182,6.055,15.259,11.455,21.477,3.375,3.866,7.548,7.773,12.682,7.947,2.219.072,4.684-.808,5.6-2.823a6.988,6.988,0,0,0,.5-2.516c.552-9.082-2.7-17.949-6.484-26.223-1.023-2.25-2.127-4.582-2.045-7.047a1.9,1.9,0,0,1,.307-1.186,1.984,1.984,0,0,1,1.227-.6c5.185-1.023,14.124,3.007,17.755-2.751C602.51,338.489,599.278,331.483,597.6,328.1Z" transform="translate(-115.35 -93.143)" fill="#ffc0c6"/>
    <path id="Path_175" data-name="Path 175" d="M701.521,198.785a4.767,4.767,0,0,1,.327-2.189c.828-1.473,3-1.023,4.633-.655,6.576,1.657,13.51.153,20.291.542s14.4,3.774,15.771,10.422a49.633,49.633,0,0,0,12.508-12.846c1.882-2.823,3.518-6.044,3.263-9.419-.368-4.868-4.459-8.509-8.182-11.588l-11.25-9.2a17.039,17.039,0,0,0-5.042-3.211c-2.608-.89-5.441-.46-8.182-.46-8.182,0-16.957-3.733-24.249,0-3.068,1.565-5.349,4.255-7.558,6.873l-10.064,11.9a6.372,6.372,0,0,0-1.606,2.731c-.286,1.452.46,2.884.726,4.347.47,2.659-.675,5.5.2,8.049,1.463,4.244,6.617,4.848,9.767,7.282,1.166.9,3.007,3.978,4.408,3.938C699.711,205.249,701.429,200.749,701.521,198.785Z" transform="translate(-112.549 -96.806)" fill="#3f3d56"/>
    <path id="Path_176" data-name="Path 176" d="M634.573,284.448a13.357,13.357,0,0,0-3.375,3.14c-1.176,1.79-1.422,4.091-2.434,5.932-2.168,4.03-7.251,5.472-10.411,8.775a3.263,3.263,0,0,0-1.023,1.718,3.794,3.794,0,0,0,.849,2.475l15.28,24.014c5.114.45,9.961-2.741,15.055-2.311,1.892.153,3.846.808,5.666.245a16.467,16.467,0,0,0,3.631-2.219c3.068-1.923,7.077-2.148,9.624-4.674s2.761-6.239,2.731-9.685a38.22,38.22,0,0,0-.91-8.9c-2.25-9.2-9.3-16.3-13.715-24.464-2.158-3.978-3.324-6.3-7.875-3.569S638.879,281.3,634.573,284.448Z" transform="translate(-114.021 -94.186)" fill="#3f3d56"/>
    <path id="Path_177" data-name="Path 177" d="M816.183,272.52a35.866,35.866,0,0,1,7.691,6.73c2.322,3,3.641,6.678,5.881,9.747s5.114,5.277,7.568,8.018c3.733,4.152,6.259,9.2,8.734,14.226a213.351,213.351,0,0,1-19.759,22.3,6.331,6.331,0,0,1-3.007,1.964,4.817,4.817,0,0,1-4.234-1.728c-1.1-1.145-1.882-2.577-2.935-3.774a15.085,15.085,0,0,0-9.338-4.51,64.143,64.143,0,0,0-10.585-.153,4.091,4.091,0,0,1-2.26-.378,3.733,3.733,0,0,1-1.227-1.411c-4.091-7.036-2.812-15.873-1.35-23.912l3.344-18.409A41.364,41.364,0,0,1,797.5,271c1.268-2.71,4.091-7.313,7.589-6.494S813.227,270.393,816.183,272.52Z" transform="translate(-110.097 -94.399)" fill="#3f3d56"/>
    <path id="Path_178" data-name="Path 178" d="M408.2,307.961l-70.456,14.41-1.606-.153-61.916-6.249V237.5l75.795-12.815L405,231.1l.02.348v.164Z" transform="translate(6.234 5.111)" fill="#17b0c3"/>
    <path id="Path_179" data-name="Path 179" d="M406.822,307.811l-70.456,14.41-1.606-.153V241.63l68.881-10.33Z" transform="translate(7.611 5.261)" opacity="0.1"/>
    <path id="Path_180" data-name="Path 180" d="M405.018,231.614l-.02.02L336.136,241.78,274.22,237.5l75.795-12.815L405,231.1l.02.348Z" transform="translate(6.234 5.111)" opacity="0.05"/>
    <path id="Path_181" data-name="Path 181" d="M444.2,231.961l-70.456,14.421-1.606-.164-61.916-6.249V161.5l75.795-12.815L441,155.1l.02.348v.164Z" transform="translate(7.053 3.383)" fill="#f8b64d"/>
    <path id="Path_182" data-name="Path 182" d="M442.822,231.811l-70.456,14.421-1.606-.164V165.63l68.881-10.33Z" transform="translate(8.429 3.533)" opacity="0.1"/>
    <path id="Path_183" data-name="Path 183" d="M441.018,155.614l-.02.02L372.136,165.78,310.22,161.5l75.795-12.815L441,155.1l.02.348Z" transform="translate(7.053 3.383)" opacity="0.05"/>
  </g>
</svg>
