<svg xmlns="http://www.w3.org/2000/svg" width="67.68" height="69.191" viewBox="0 0 67.68 69.191"><g transform="translate(-78.848 -56)"><g transform="translate(78.848 56)"><g transform="translate(58.431 9.579)"><path d="M0-.782l9.249,4.16H0Z" transform="translate(0 0.782)" fill="#eeae4a"/><path d="M0,2.114l6.01-2.9H0Z" transform="translate(0 4.943)" fill="#e3712b"/></g><path d="M.571,8.717H0L8.889,0h2.8V4.312Z" transform="translate(0 32.838)" fill="#17b0c3"/><path d="M21.67,41.287a26.362,26.362,0,0,1-6.515-.814,26.136,26.136,0,0,1-5.918-2.309A26.486,26.486,0,0,1,0,29.869L29.869,0,47.78,17.911A26.245,26.245,0,0,1,21.67,41.287Z" transform="translate(7.851 4.188)" fill="#f13f76" opacity="0.84"/><g transform="translate(8.066 0)"><circle cx="12.545" cy="12.545" r="12.545" transform="translate(26.551)" fill="#17b0c3"/><path d="M11.262,32.823A21.516,21.516,0,0,1,0,29.652L29.652,0a21.58,21.58,0,0,1-10,31.129A21.428,21.428,0,0,1,11.262,32.823Z" transform="translate(0 4.028)" fill="#fbcf3d" opacity="0.79"/></g></g><text transform="translate(88.308 121.191)" fill="#f9b64d" font-size="12" font-family="OpenSans-SemiBold, Open Sans" font-weight="600"><tspan x="0" y="0">Deliver</tspan><tspan y="0" fill="#17b0c3">It</tspan></text></g></svg>