<svg xmlns="http://www.w3.org/2000/svg" xmlns:xlink="http://www.w3.org/1999/xlink" width="760.865" height="584.242" viewBox="0 0 760.865 584.242">
  <defs>
    <linearGradient id="linear-gradient" x1="0.5" y1="1" x2="0.5" gradientUnits="objectBoundingBox">
      <stop offset="0" stop-color="gray" stop-opacity="0.251"/>
      <stop offset="0.54" stop-color="gray" stop-opacity="0.122"/>
      <stop offset="1" stop-color="gray" stop-opacity="0.102"/>
    </linearGradient>
    <linearGradient id="linear-gradient-2" x1="0.5" x2="0.5" xlink:href="#linear-gradient"/>
  </defs>
  <g id="register-img" transform="translate(-136.209 0)">
    <g id="undraw_add_to_cart_vkjp" transform="translate(136.209 0)">
      <path id="Path_184" data-name="Path 184" d="M856.743,424.676c-.682.5-1.309.982-1.977,1.452a66.648,66.648,0,0,1-7.723,4.71c-14.028,7.4-31.322,11.009-48.165,13.463-37.777,5.508-76.345,6.578-114.749,7.628-103.768,2.849-207.788,5.692-311.3-.872-40.9-2.59-82.7-6.925-119.759-20.218q-7.969-2.849-15.623-6.285c-10.327-4.642-20.245-10.293-28.493-17.041-7.75-6.326-14.035-13.592-17.791-21.854-7.832-17.2-3.688-36.53,5.256-53.394a165.935,165.935,0,0,1,12.536-19.611c6.905-9.5,14.519-18.718,21.465-28.207,24.717-33.728,40.845-76.4,18.03-110.993-6.557-9.938-16.032-18.664-21.377-29.038-6.817-13.272-6.292-28.009-4.124-42.324q.423-2.727.893-5.4c3.7-21.227,10.668-44.1,32.147-57.347,22.31-13.769,53.994-13.074,81.682-8.18,43.06,7.689,82.78,23.694,122.922,38.145s82.139,27.655,126.255,29.072c38.956,1.254,84.4-8.132,110.25-32.528,25.112-23.694,72.316-25.5,106.338-11.186,23.353,9.823,40.776,27.518,48.124,47.422a61.9,61.9,0,0,1,3.2,12.352,56.959,56.959,0,0,1,.573,11.649c-.1,1.922-.3,3.824-.573,5.705-5.685,39.277-46.6,70.258-71.478,105.342-12.154,17.137-20.736,37.723-12.379,56.2,12.747,28.159,57.075,38.172,83.843,59.126a62.986,62.986,0,0,1,13.156,13.5C880.88,384.615,876.088,409.8,856.743,424.676Z" transform="translate(-114.309 -27.438)" fill="#17b0c3" opacity="0.1"/>
      <g id="flowers">
        <path id="Path_185" data-name="Path 185" d="M257.256,322.345s-31.356-55.568-78.608-71.573a96.647,96.647,0,0,1-48.97-36.632,162.234,162.234,0,0,1-14.451-25.985" transform="translate(-81.39 -100.891)" fill="none" stroke="#535461" stroke-miterlimit="10" stroke-width="2.518"/>
        <path id="Path_186" data-name="Path 186" d="M56.859,149.422c5.385,5.2,30.456,10.654,30.456,10.654s-6.135-24.894-11.534-30.122a13.585,13.585,0,1,0-18.923,19.5Z" transform="translate(-52.735 -72.444)" fill="#17b0c3"/>
        <path id="Path_187" data-name="Path 187" d="M77.279,229.571c7.355,1.459,31.356-7.628,31.356-7.628s-18.711-17.559-26.073-19.018a13.584,13.584,0,1,0-5.283,26.649Z" transform="translate(-58.97 -107.543)" fill="#17b0c3"/>
        <path id="Path_188" data-name="Path 188" d="M166.274,320.163c7.089-2.454,23.176-22.406,23.176-22.406s-25-5.719-32.085-3.265a13.585,13.585,0,1,0,8.861,25.671Z" transform="translate(-96.33 -149.369)" fill="#17b0c3"/>
        <path id="Path_189" data-name="Path 189" d="M256.024,371.482c7.4-1.227,26.653-18.166,26.653-18.166S259,343.453,251.6,344.673a13.586,13.586,0,0,0,4.424,26.809Z" transform="translate(-138.705 -172.611)" fill="#17b0c3"/>
        <path id="Path_190" data-name="Path 190" d="M160.025,190.592c0,7.5-13.565,29.263-13.565,29.263s-13.592-21.751-13.6-29.25a13.585,13.585,0,1,1,27.164,0Z" transform="translate(-89.474 -95.645)" fill="#17b0c3"/>
        <path id="Path_191" data-name="Path 191" d="M262.231,249.847c-2.243,7.157-21.7,23.858-21.7,23.858s-6.462-24.846-4.247-32.038a13.585,13.585,0,0,1,25.9,8.118Z" transform="translate(-136.685 -121.315)" fill="#17b0c3"/>
        <path id="Path_192" data-name="Path 192" d="M352.2,325.038c-1,7.437-17.355,27.184-17.355,27.184s-10.566-23.367-9.543-30.8a13.585,13.585,0,1,1,26.927,3.62Z" transform="translate(-177.685 -156.596)" fill="#17b0c3"/>
        <path id="Path_193" data-name="Path 193" d="M56.859,149.422c5.385,5.2,30.456,10.654,30.456,10.654s-6.135-24.894-11.534-30.122a13.585,13.585,0,1,0-18.923,19.5Z" transform="translate(-52.735 -72.444)" opacity="0.25"/>
        <path id="Path_194" data-name="Path 194" d="M77.279,229.571c7.355,1.459,31.356-7.628,31.356-7.628s-18.711-17.559-26.073-19.018a13.584,13.584,0,1,0-5.283,26.649Z" transform="translate(-58.97 -107.543)" opacity="0.25"/>
        <path id="Path_195" data-name="Path 195" d="M166.274,320.163c7.089-2.454,23.176-22.406,23.176-22.406s-25-5.719-32.085-3.265a13.585,13.585,0,1,0,8.861,25.671Z" transform="translate(-96.33 -149.369)" opacity="0.25"/>
        <path id="Path_196" data-name="Path 196" d="M256.024,371.482c7.4-1.227,26.653-18.166,26.653-18.166S259,343.453,251.6,344.673a13.586,13.586,0,0,0,4.424,26.809Z" transform="translate(-138.705 -172.611)" opacity="0.25"/>
        <path id="Path_197" data-name="Path 197" d="M160.025,190.592c0,7.5-13.565,29.263-13.565,29.263s-13.592-21.751-13.6-29.25a13.585,13.585,0,1,1,27.164,0Z" transform="translate(-89.474 -95.645)" opacity="0.25"/>
        <path id="Path_198" data-name="Path 198" d="M262.231,249.847c-2.243,7.157-21.7,23.858-21.7,23.858s-6.462-24.846-4.247-32.038a13.585,13.585,0,0,1,25.9,8.118Z" transform="translate(-136.685 -121.315)" opacity="0.25"/>
        <path id="Path_199" data-name="Path 199" d="M352.2,325.038c-1,7.437-17.355,27.184-17.355,27.184s-10.566-23.367-9.543-30.8a13.585,13.585,0,1,1,26.927,3.62Z" transform="translate(-177.685 -156.596)" opacity="0.25"/>
        <path id="Path_200" data-name="Path 200" d="M310.293,281.3s-6.135-63.516-42.862-97.3a96.618,96.618,0,0,1-29.924-53.332,162.337,162.337,0,0,1-2.672-29.618" transform="translate(-136.234 -60.951)" fill="none" stroke="#535461" stroke-miterlimit="10" stroke-width="2.518"/>
        <path id="Path_201" data-name="Path 201" d="M191.493,45.669c2.808,6.96,23.537,22.058,23.537,22.058s4.465-25.255,1.663-32.215a13.595,13.595,0,1,0-25.221,10.157Z" transform="translate(-115.898 -26.992)" fill="#17b0c3"/>
        <path id="Path_202" data-name="Path 202" d="M177.665,127.24c6.135,4.315,31.745,5.726,31.745,5.726s-9.932-23.626-16.067-27.941a13.6,13.6,0,0,0-15.678,22.215Z" transform="translate(-107.38 -61.631)" fill="#17b0c3"/>
        <path id="Path_203" data-name="Path 203" d="M222.492,246.127c7.5.634,30.293-11.084,30.293-11.084s-20.538-15.358-28.016-15.985a13.585,13.585,0,1,0-2.277,27.068Z" transform="translate(-124.729 -115.026)" fill="#17b0c3"/>
        <path id="Path_204" data-name="Path 204" d="M283.638,329.359c7.266,1.881,31.731-5.808,31.731-5.808s-17.648-18.609-24.908-20.49a13.584,13.584,0,1,0-6.817,26.3Z" transform="translate(-153.947 -153.378)" fill="#17b0c3"/>
        <path id="Path_205" data-name="Path 205" d="M269,125.372c-3.033,6.857-24.26,21.247-24.26,21.247s-3.613-25.385-.579-32.249a13.584,13.584,0,1,1,24.841,11Z" transform="translate(-139.952 -63.349)" fill="#17b0c3"/>
        <path id="Path_206" data-name="Path 206" d="M333.8,220.241c-4.949,5.637-29.509,13.02-29.509,13.02s4.144-25.3,9.1-30.94A13.58,13.58,0,0,1,333.8,220.241Z" transform="translate(-168.081 -105.268)" fill="#17b0c3"/>
        <path id="Path_207" data-name="Path 207" d="M388.892,325.892c-3.926,6.394-26.884,17.818-26.884,17.818s-.191-25.644,3.735-32.038a13.6,13.6,0,1,1,23.176,14.219Z" transform="translate(-194.546 -154.553)" fill="#17b0c3"/>
      </g>
      <ellipse id="Ellipse_15" data-name="Ellipse 15" cx="76.025" cy="9.898" rx="76.025" ry="9.898" transform="translate(202.205 560.78)" fill="#17b0c3" opacity="0.1"/>
      <g id="floor_flowers" data-name="floor flowers" transform="translate(99.635 525.893)">
        <ellipse id="Ellipse_16" data-name="Ellipse 16" cx="23.094" cy="3.954" rx="23.094" ry="3.954" transform="translate(1.938 40.067)" fill="#17b0c3" opacity="0.1"/>
        <path id="Path_208" data-name="Path 208" d="M283.5,998.23s3.742,4.9-1.731,12.27-9.986,13.633-8.18,18.248c0,0,8.255-13.735,15-13.926S290.907,1006.492,283.5,998.23Z" transform="translate(-253.455 -998.23)" fill="#17b0c3"/>
        <path id="Path_209" data-name="Path 209" d="M283.7,998.23a6.02,6.02,0,0,1,.763,1.541c6.557,7.7,10.054,14.894,3.749,15.071-5.869.17-12.917,10.668-14.6,13.319a6.338,6.338,0,0,0,.2.607s8.255-13.735,15-13.926S291.1,1006.492,283.7,998.23Z" transform="translate(-253.648 -998.23)" opacity="0.1"/>
        <path id="Path_210" data-name="Path 210" d="M304.361,1008.816c0,1.725-.191,3.122-.429,3.122s-.436-1.363-.436-3.122.245-.913.484-.913S304.361,1007.092,304.361,1008.816Z" transform="translate(-267.352 -1002.572)" fill="#ffd037"/>
        <path id="Path_211" data-name="Path 211" d="M307.006,1012.56c-1.513.825-2.836,1.323-2.952,1.111s1.022-1.05,2.536-1.874.913-.225,1.029,0S308.519,1011.735,307.006,1012.56Z" transform="translate(-267.605 -1004.257)" fill="#ffd037"/>
        <path id="Path_212" data-name="Path 212" d="M248.586,998.23s-3.742,4.9,1.731,12.27,9.986,13.633,8.18,18.248c0,0-8.255-13.735-15-13.926S241.2,1006.492,248.586,998.23Z" transform="translate(-238.319 -998.23)" fill="#17b0c3"/>
        <path id="Path_213" data-name="Path 213" d="M248.574,998.23a6.019,6.019,0,0,0-.763,1.541c-6.557,7.7-10.054,14.894-3.749,15.071,5.876.17,12.917,10.668,14.6,13.319a4.857,4.857,0,0,1-.2.607s-8.255-13.735-15-13.926S241.185,1006.492,248.574,998.23Z" transform="translate(-238.306 -998.23)" opacity="0.1"/>
        <path id="Path_214" data-name="Path 214" d="M242.854,1008.816c0,1.725.191,3.122.429,3.122s.436-1.363.436-3.122-.245-.913-.484-.913S242.854,1007.092,242.854,1008.816Z" transform="translate(-239.546 -1002.572)" fill="#ffd037"/>
        <path id="Path_215" data-name="Path 215" d="M237.667,1012.56c1.513.825,2.829,1.323,2.945,1.111s-1.022-1.05-2.536-1.874-.913-.225-1.029,0S236.153,1011.735,237.667,1012.56Z" transform="translate(-236.744 -1004.257)" fill="#ffd037"/>
        <path id="Path_216" data-name="Path 216" d="M245.057,1048.652s10.47-.327,13.633-2.57,16.1-4.935,16.884-1.329,15.733,17.921,3.913,18.016-27.464-1.84-30.613-3.756S245.057,1048.652,245.057,1048.652Z" transform="translate(-240.556 -1018.755)" fill="#a8a8a8"/>
        <path id="Path_217" data-name="Path 217" d="M279.692,1066.3c-11.82.1-27.464-1.841-30.613-3.756-2.4-1.466-3.354-6.708-3.674-9.121h-.348s.682,8.439,3.81,10.361,18.793,3.851,30.613,3.756c3.408,0,4.594-1.241,4.526-3.04C283.536,1065.6,282.234,1066.276,279.692,1066.3Z" transform="translate(-240.556 -1023.537)" opacity="0.2"/>
        <path id="Path_218" data-name="Path 218" d="M869.034,1052.671s-28.82-1.738-25.419,18.459a4.913,4.913,0,0,0,2.556,5.187s.054-1.493,2.958-.988a13.191,13.191,0,0,0,3.129.15,6.474,6.474,0,0,0,3.831-1.581h0s8.1-3.34,11.247-16.584c0,0,2.331-2.89,2.243-3.633l-4.867,2.045s1.663,3.51.354,6.428c0,0-.157-6.3-1.091-6.135-.191,0-2.529,1.213-2.529,1.213s2.863,6.135.682,10.552c0,0,.818-7.5-1.6-10.109l-3.408,2s3.34,6.312,1.077,11.465c0,0,.579-7.9-1.793-10.982l-3.1,2.42s3.136,6.223,1.22,10.5c0,0-.245-9.2-1.9-9.891,0,0-2.726,2.393-3.129,3.408,0,0,2.147,4.513.818,6.9,0,0-.818-6.135-1.493-6.135,0,0-2.727,4.09-2.986,6.817a14.843,14.843,0,0,1,2.331-7.232,8.139,8.139,0,0,0-4.138,2.147s.423-2.87,4.772-3.122c0,0,2.236-3.081,2.836-3.265,0,0-4.363-.368-7.007.8,0,0,2.324-2.727,7.8-1.479l3.06-2.495s-5.739-.791-8.18.082c0,0,2.808-2.4,9-.682l3.34-1.99s-4.9-1.056-7.819-.682c0,0,3.081-1.663,8.793.136l2.386-1.07s-3.592-.682-4.642-.811-1.1-.4-1.1-.4a12.446,12.446,0,0,1,6.742.75S869.123,1052.991,869.034,1052.671Z" transform="translate(-514.887 -1023.176)" fill="#17b0c3"/>
        <ellipse id="Ellipse_17" data-name="Ellipse 17" cx="20.395" cy="3.449" rx="20.395" ry="3.449" transform="translate(313.902 51.451)" fill="#17b0c3" opacity="0.1"/>
        <path id="Path_219" data-name="Path 219" d="M785.292,1054.674s-16.25-.982-14.315,10.409a2.781,2.781,0,0,0,1.445,2.924s0-.845,1.67-.559a7.95,7.95,0,0,0,1.759.089,3.729,3.729,0,0,0,2.161-.893h0s4.567-1.888,6.346-9.352c0,0,1.309-1.629,1.261-2.045l-2.727,1.166a4.941,4.941,0,0,1,.2,3.626s-.089-3.552-.613-3.47c-.109,0-1.425.682-1.425.682s1.609,3.408.4,5.951c0,0,.457-4.246-.9-5.705l-1.929,1.131s1.881,3.558.607,6.462c0,0,.327-4.458-1.016-6.189l-1.745,1.363s1.766,3.51.682,5.917c0,0-.143-5.187-1.07-5.576a10.661,10.661,0,0,0-1.766,1.9s1.213,2.549.463,3.892c0,0-.463-3.456-.838-3.47a11.45,11.45,0,0,0-1.684,3.858,8.281,8.281,0,0,1,1.309-4.09,4.581,4.581,0,0,0-2.331,1.207s.238-1.622,2.727-1.759a10.322,10.322,0,0,1,1.6-1.841,9.989,9.989,0,0,0-3.954.45s1.316-1.527,4.4-.832l1.725-1.411s-3.238-.443-4.608.048c0,0,1.581-1.363,5.078-.368l1.875-1.118a16.84,16.84,0,0,0-4.4-.382s1.738-.934,4.956.075l1.363-.6s-2.045-.4-2.611-.464-.627-.225-.627-.225a7.035,7.035,0,0,1,3.8.423A16.077,16.077,0,0,0,785.292,1054.674Z" transform="translate(-481.634 -1024.102)" fill="#17b0c3"/>
        <ellipse id="Ellipse_18" data-name="Ellipse 18" cx="11.499" cy="1.943" rx="11.499" ry="1.943" transform="translate(280.965 42.958)" fill="#17b0c3" opacity="0.1"/>
        <path id="Path_220" data-name="Path 220" d="M839.855,1010.093s-19.611-1.186-17.3,12.563a3.354,3.354,0,0,0,1.745,3.531s0-1.016,2.011-.682a9.682,9.682,0,0,0,2.127.1,4.492,4.492,0,0,0,2.611-1.077h0s5.515-2.277,7.655-11.295c0,0,1.588-1.963,1.527-2.468l-3.313,1.411a5.959,5.959,0,0,1,.245,4.376s-.109-4.288-.75-4.185c-.123,0-1.718.825-1.718.825s1.95,4.165.477,7.185c0,0,.559-5.126-1.084-6.885l-2.331,1.363s2.277,4.294.736,7.8c0,0,.4-5.378-1.227-7.5l-2.113,1.643s2.14,4.233.838,7.144c0,0-.17-6.258-1.3-6.735a12.833,12.833,0,0,0-2.127,2.3s1.465,3.074.552,4.7c0,0-.552-4.165-1.009-4.185a13.684,13.684,0,0,0-2.045,4.656,10.026,10.026,0,0,1,1.581-4.921,5.541,5.541,0,0,0-2.815,1.459s.286-1.956,3.272-2.127a12.822,12.822,0,0,1,1.929-2.222,12.135,12.135,0,0,0-4.772.552s1.581-1.847,5.317-1.009l2.086-1.7s-3.913-.539-5.569.054c0,0,1.909-1.629,6.135-.443l2.27-1.363a22.358,22.358,0,0,0-5.317-.457s2.093-1.132,5.985.089l1.622-.723s-2.447-.484-3.163-.559-.75-.273-.75-.273a8.473,8.473,0,0,1,4.587.511S839.923,1010.311,839.855,1010.093Z" transform="translate(-505.271 -1003.658)" fill="#17b0c3"/>
        <ellipse id="Ellipse_19" data-name="Ellipse 19" cx="13.885" cy="2.345" rx="13.885" ry="2.345" transform="translate(307.195 21.383)" fill="#17b0c3" opacity="0.1"/>
      </g>
      <g id="browser" transform="translate(93.223 65.138)">
        <path id="Path_221" data-name="Path 221" d="M873.391,480.707V147.291H224.9V461.58a129.107,129.107,0,0,0,28.629,17.5q7.675,3.538,15.678,6.469H865.654Z" transform="translate(-224.902 -147.291)" fill="url(#linear-gradient)"/>
        <path id="Path_222" data-name="Path 222" d="M873.337,488.925V164.916H227.521V470.363c8.248,6.721,18.166,12.372,28.493,17.041q7.648,3.408,15.623,6.285H865.614Z" transform="translate(-226.103 -155.372)" fill="#fff"/>
        <rect id="Rectangle_599" data-name="Rectangle 599" width="645.81" height="17.137" transform="translate(1.425 0.947)" fill="#5a5773"/>
      </g>
      <g id="buttons" transform="translate(103.113 70.223)">
        <circle id="Ellipse_20" data-name="Ellipse 20" cx="4.431" cy="4.431" r="4.431" fill="#fff"/>
        <circle id="Ellipse_21" data-name="Ellipse 21" cx="4.431" cy="4.431" r="4.431" transform="translate(11.929)" fill="#fff"/>
        <circle id="Ellipse_22" data-name="Ellipse 22" cx="4.431" cy="4.431" r="4.431" transform="translate(23.858)" fill="#fff"/>
      </g>
      <g id="boxes" transform="translate(111.975 120.883)">
        <rect id="Rectangle_600" data-name="Rectangle 600" width="106.678" height="67.034" transform="translate(147.707)" fill="#17b0c3"/>
        <rect id="Rectangle_601" data-name="Rectangle 601" width="106.678" height="67.034" fill="#5a5773" opacity="0.2"/>
        <rect id="Rectangle_602" data-name="Rectangle 602" width="106.678" height="67.034" transform="translate(295.414)" fill="#5a5773" opacity="0.2"/>
        <rect id="Rectangle_603" data-name="Rectangle 603" width="106.678" height="67.034" transform="translate(0 95.833)" fill="#5a5773" opacity="0.2"/>
        <rect id="Rectangle_604" data-name="Rectangle 604" width="106.678" height="67.034" transform="translate(147.707 95.833)" fill="#5a5773" opacity="0.2"/>
        <rect id="Rectangle_605" data-name="Rectangle 605" width="106.678" height="67.034" transform="translate(295.414 95.833)" fill="#5a5773" opacity="0.2"/>
        <rect id="Rectangle_606" data-name="Rectangle 606" width="106.678" height="67.034" transform="translate(0 191.66)" fill="#5a5773" opacity="0.2"/>
        <rect id="Rectangle_607" data-name="Rectangle 607" width="106.678" height="67.034" transform="translate(147.707 191.66)" fill="#5a5773" opacity="0.2"/>
        <rect id="Rectangle_608" data-name="Rectangle 608" width="106.678" height="67.034" transform="translate(295.414 191.66)" fill="#5a5773" opacity="0.2"/>
      </g>
      <g id="woman" transform="translate(234.904 137.623)">
        <path id="Path_223" data-name="Path 223" d="M598.948,432.392s-19.161-35.023-15.93-40.722a77.619,77.619,0,0,0,5.61-13.947s7.075-4.84,7.075-6.817,5.6-6.551,8.555-8.541,1.472-11.39,0-12.529-3.81-5.126-3.81-5.126,2.045-5.692,0-7.4.3-3.408,0-5.126a68.8,68.8,0,0,1,0-7.969,12.846,12.846,0,0,0-7.539-5.453l-.218-.9-1.261-5.31s6.135-11.758-3.817-17.914a16.634,16.634,0,0,0-2.2-1.159,7.636,7.636,0,0,0-.055-.77,48.189,48.189,0,0,0-1.445-9c-.518-1.65-1.193-2.761-2.045-2.508a1.363,1.363,0,0,0-.559.32,6.214,6.214,0,0,0-1.057,1.247h0a.279.279,0,0,1-.048.075,21.382,21.382,0,0,0-2.345,6.51,37.6,37.6,0,0,0-.682,4.09,22.5,22.5,0,0,0-1.138,2.529c-1.207,3.129-2.617,8.548-.048,12.556,2.181,3.408,5.119,8.091,7.253,11.5l.068.109.129.211-.225.143v.525l.2,2.87,1.65,24.8a10.527,10.527,0,0,0-1.513-.32,13.748,13.748,0,0,0-2.2-.143c-1.438-5.651-5.385-10.906-6.135-16.81a15.577,15.577,0,0,1-.116-1.779c.061-3.715.989-7.444.914-11.152,0-.682,0-1.363-.068-2.045h0a5.471,5.471,0,0,0-.055-.566,16.762,16.762,0,0,0-9.114-12.7c-1.711-.852-3.565-1.418-5.228-2.352-3.844-2.154-6.305-6.039-9.8-8.7-2.6-1.984-6.476-3.047-9.373-2.045a43.282,43.282,0,0,0-4.56.941h0a41.142,41.142,0,0,0-10.436,4.335c-.443.266-.886.539-1.309.852a5.768,5.768,0,0,0-2.106,2.461,6.448,6.448,0,0,0-.327,2.652c0,.648,0,1.309.041,1.956-.191,10.906-11.943,19.345-12.91,29.993,0,.252-.041.5-.054.757v1.166h0v.852c.17,4.669,2.6,9.018,3.04,13.667.041.416.061.825.068,1.241a20.614,20.614,0,0,1-1.206,6.258,18.312,18.312,0,0,0-4.233,1.718c-3.572,2.3-10.02,6.264-12.372,13.851a20.289,20.289,0,0,0-.893,6.08,126.962,126.962,0,0,1-1.99,21.711,40.577,40.577,0,0,1-1.254,5.337,1.254,1.254,0,0,0-.041.525l-1.418,18.4-.252,3.238-.354,4.608s.1.279.252.75a21.656,21.656,0,0,1,.559,2.127,11.439,11.439,0,0,1,.184,4.772,3.286,3.286,0,0,1-1,1.752.733.733,0,0,0-.116.129c-.4.566-.764,2.249-1.077,4.69-.123.954-.239,2.045-.354,3.176-.682,7.26-1.1,18.125-1.363,27.109-.245,8.861-.334,15.862-.334,15.862a18.091,18.091,0,0,0,3.66,1.813c-.1.238-.2.484-.293.743a35.811,35.811,0,0,0-2.222,9.366c-.573,6.7,1.3,14.144,10.647,17.975a15.04,15.04,0,0,0,1.834.627,5.816,5.816,0,0,0,4.662-.286c0,.4.048.791.068,1.179.1,1.663.177,3.183.218,4.458.293,7.975,2.27,21.922,2.27,21.922s.682,5.7.089,7.4,0,8.541,0,8.541,2.045,3.408,0,5.126-2.652,10.225-2.045,11.39a.382.382,0,0,1,.034.13c.45,2.829-2.093,44.859-2.093,44.859s-2.406,6.435-4.322,13.115c-1.868,6.5-3.272,13.238-1.541,14.5.859.627,2.856,1.1,5.392,1.459,0,.279-.041.559-.068.845-.245,3.006-.634,6.244-1.193,7.062-.811,1.159-1.663,10.143-2.079,15l-.041.538a50.24,50.24,0,0,0-2.195,6.367s-6.523,16.36-4.315,20.606a3.483,3.483,0,0,0,.811,1h0a1.84,1.84,0,0,0,.211.191c3.142,2.515,11.015,3.04,13.872,3.156l-.109,4.049v.15h3.715v-.1c0-.511.082-2.856.2-5.992,0-.559.041-1.145.068-1.745,0-.47.048-.948.068-1.438a25.217,25.217,0,0,0,1.615-9.1,39.932,39.932,0,0,1,1.432-10.552,29.308,29.308,0,0,1,1.888-5.147s1.159-6.135-.457-10.477a7.564,7.564,0,0,0-1.363-2.359c0-.143,0-.286,0-.436v-.927a39.331,39.331,0,0,1,.873-8.739.948.948,0,0,1,0-.136c.055-.239.116-.464.177-.682l.041-.15,1.206.041c3.7.1,6.421.1,6.421.1s2.952-15.092,2.658-21.636v-.886c-.1-6.5,1.786-15.344,1.786-15.344l2.379-23.074s-1.179-3.995,0-6.817c.729-1.758,2.236-5.024,3.286-7.273.491-1.043.879-1.861,1.043-2.215l.1-.191a4.421,4.421,0,0,1-1.05-.525h0c-.961-.641-1.82-1.9,1.057-3.742,4.424-2.849,2.952-9.966,2.952-9.966a5.116,5.116,0,0,1,.232-4.84c1.534-2.277,0-10.818,0-10.818a35.769,35.769,0,0,0,3.027-7.123c1.1-3.408,3.872-20.075,5.181-28.111.429-2.638.682-4.342.682-4.342l.041.416.041.45h0l.368,3.8.048.5.682,7.178s1.363,18.868.511,26.264v.136a8.741,8.741,0,0,1-.5,2.243c-1.568,3.545-1.282,17.627-1.2,20.743v.627c0,.17-1.111,2.781-.832,4.813h0a3.087,3.087,0,0,0,.539,1.431,3.627,3.627,0,0,1,.525,2.215v.068a8.044,8.044,0,0,1-.082.982,18.722,18.722,0,0,1-1.036,3.858s-1.582,4.158-.982,6.333h0a2.005,2.005,0,0,0,.389.77,1.82,1.82,0,0,1,.225.818.3.3,0,0,0,0,.075c.552,4.587-.872,24.839-1.718,35.923-.341,4.376-.586,7.321-.586,7.321l-2.338,24.2.232.164c.266.191.763.518,1.431.914v.055l-.1.729c-.334,2.331-.784,5.044-1.275,7.116-.041.157-.075.307-.116.45a6.524,6.524,0,0,0-2.5,1c-4.962,8.814-2.767,15.8,0,17.832.784.573,1.316,2.174,1.67,4.165l.682,8.787v1.009a2.617,2.617,0,0,0,.13.8l.211,2.665.286,3.708h2.263v-4.492h.123c3.572.123,9.332.273,11.84.075h.068a4.408,4.408,0,0,0,.682-.075,1.706,1.706,0,0,0,.4-.109c1.329-.641,4.642-10.034,1.656-12.167s-3.647-8.18-3.647-8.18c-.259-.791-.518-1.541-.784-2.256v-.464a37.5,37.5,0,0,1,.354-7.812,59.41,59.41,0,0,0,.777-9.332v-.866a11.626,11.626,0,0,0,1.52-.5l.109-.048a10.707,10.707,0,0,0,2.542-1.507l8.343-36.973.879-4.3,5.01-24.464s-1.766-8.541,0-9.959c.648-.518.825-2.727.784-5.283-.068-4.472-.784-10.1-.784-10.1s2.358-3.7,3.545-5.978,0-8.255,0-8.255l2.324-13.687s2.658-16.23,9.141-29.9c4.772-10.055,1.731-37.2-1.363-51.656-.082-.375-.164-.743-.245-1.1V462.7c1.459-.722,3.245-1.6,5.153-2.508l.723-.341c2.42-1.138,4.983-2.311,7.28-3.286l.15-.061a50.846,50.846,0,0,1,5.065-1.895,8.5,8.5,0,0,1,1.554-.32C611.333,454.027,598.948,432.392,598.948,432.392ZM506.714,478.71h1.227c-.143.266-.28.538-.416.811-.082.164-.164.32-.239.484-.45.934-.866,1.888-1.207,2.822.136-1.009.307-2.106.5-3.279C506.625,479.29,506.673,478.983,506.714,478.71ZM503.4,496.481a.5.5,0,0,0,0-.1l-.1-.32c-.075-.218-.143-.436-.211-.682q.634-.191,1.288-.43h.089v.225c-.034.32-.075.641-.116.954h0a.687.687,0,0,1,0,.123,6.625,6.625,0,0,1-.089.75c-.061.491-.123.968-.177,1.425-.129-.429-.259-.852-.4-1.268A3.229,3.229,0,0,1,503.4,496.481Z" transform="translate(-486.564 -281.159)" fill="url(#linear-gradient-2)"/>
        <path id="Path_224" data-name="Path 224" d="M665.483,324.3l-7.362,2.6-2.672-4.431c-2.045-3.408-4.881-8.071-6.973-11.458-3.695-5.958,1.138-15.037,1.138-15.037s.872-9.114,3.981-11.922,3.974,11.922,3.974,11.922c12.481,5.671,5.794,19.011,5.794,19.011l1.213,5.29Z" transform="translate(-560.168 -282.325)" fill="#efb7b9"/>
        <path id="Path_225" data-name="Path 225" d="M672.566,355.071l-7.362,2.6-2.672-4.431v-.389a12.82,12.82,0,0,1,9.141-1.806Z" transform="translate(-567.252 -313.094)" opacity="0.1"/>
        <path id="Path_226" data-name="Path 226" d="M659.108,385.646l3.688-3.122-1.847-28.1s9.543-6.53,16.6,3.688a71.73,71.73,0,0,0,0,7.948c.286,1.7-1.983,3.408,0,5.106s0,7.382,0,7.382,2.243,3.974,3.661,5.106,2.842,10.5,0,12.488-8.173,6.53-8.173,8.514-6.817,6.817-6.817,6.817l-5.985-7.914Z" transform="translate(-565.681 -313.812)" fill="#ff6484"/>
        <path id="Path_227" data-name="Path 227" d="M503.06,698.168c-13.756-5.835-10.7-20.088-8.112-27.266a37.153,37.153,0,0,1,1.82-4.254l7.716-4.683s1.575,4.015,3.258,9.4C511.649,683.895,516.141,703.724,503.06,698.168Z" transform="translate(-489.386 -455.772)" fill="#efb7b9"/>
        <path id="Path_228" data-name="Path 228" d="M531.488,965.89a23.171,23.171,0,0,0-2.045,5.739,41.451,41.451,0,0,0-.886,9.768c.055,2.27.245,3.756.245,3.756l-15.324,10.538s.089-1.234.239-3.047c.4-4.826,1.22-13.783,2-14.942.539-.8.913-4.035,1.152-7.035s.334-5.63.334-5.63S535.64,958.125,531.488,965.89Z" transform="translate(-498.905 -593.441)" fill="#efb7b9"/>
        <path id="Path_229" data-name="Path 229" d="M600.859,981.8s0,2.931-.109,6.339a64.935,64.935,0,0,1-.743,9.3,38.3,38.3,0,0,0-.348,7.784c.1,3.408.348,6.476.348,6.476s-15.644-14.792-14.049-15.964c.429-.313.852-1.575,1.241-3.252.477-2.045.907-4.771,1.227-7.089.382-2.761.62-4.983.62-4.983Z" transform="translate(-532.087 -601.792)" fill="#efb7b9"/>
        <path id="Path_230" data-name="Path 230" d="M534.386,965.889a23.176,23.176,0,0,0-2.045,5.74,125.2,125.2,0,0,1-12.542-.961c.232-2.931.334-5.63.334-5.63S538.537,958.125,534.386,965.889Z" transform="translate(-501.803 -593.441)" opacity="0.1"/>
        <path id="Path_231" data-name="Path 231" d="M603.045,981.812s0,2.931-.109,6.339c-4.881,1.247-9.9-1.247-12.324-2.727.382-2.761.62-4.983.62-4.983Z" transform="translate(-534.273 -601.804)" opacity="0.1"/>
        <path id="Path_232" data-name="Path 232" d="M597.631,663.644c-6.244,13.633-8.8,29.8-8.8,29.8l-2.27,13.633s1.138,5.958,0,8.228-3.408,5.964-3.408,5.964,1.7,13.906,0,15.324,0,9.932,0,9.932l-5.678,28.629-7.948,36.891c-7.662,6.251-17.859-1.7-17.859-1.7l2.249-24.124s3.408-42.262,1.99-43.994.566-7.1.566-7.1,1.99-5.112.573-7.1.279-6.244.279-6.244-.566-17.314,1.138-21.288,0-28.554,0-28.554l-.682-7.655-.4-4.24-.034-.416s-.259,1.7-.682,4.329c-1.254,8.009-3.926,24.608-4.983,28.023a36.489,36.489,0,0,1-2.911,7.1s1.472,8.514,0,10.784a5.28,5.28,0,0,0-.225,4.826s1.418,7.1-2.842,9.932,0,4.26,0,4.26-3.122,6.816-4.253,9.645,0,6.817,0,6.817l-2.27,22.985s-1.99,9.645-1.7,16.176-2.556,21.567-2.556,21.567-21.854,0-25.221-2.556,5.624-27.491,5.624-27.491,2.556-43.708,1.984-44.839,0-9.652,1.99-11.35,0-5.112,0-5.112-.566-6.816,0-8.514-.089-7.382-.089-7.382-1.9-13.906-2.181-21.854-1.7-25.821-1.7-25.821,1.486-11.056,1.711-16.319a18.539,18.539,0,0,1,2.045-6.633,59.175,59.175,0,0,1,4.226-7.416s67.245-19.877,70.067-17.9c.75.525,1.84,4.09,2.918,9.25C599.295,626.562,602.226,653.623,597.631,663.644Z" transform="translate(-496.829 -428.622)" fill="#444053"/>
        <circle id="Ellipse_23" data-name="Ellipse 23" cx="19.584" cy="19.584" r="19.584" transform="translate(39.788 22.394)" fill="#a1616a"/>
        <path id="Path_233" data-name="Path 233" d="M604.872,612.159c-2.256,1.159-3.769,1.956-3.769,1.956s-31.785,15.044-40.824,14.192c-6.994-.682-24.846-.293-32.624-.1a59.166,59.166,0,0,1,4.226-7.416s67.252-19.87,70.074-17.893C602.7,603.433,603.795,606.985,604.872,612.159Z" transform="translate(-505.405 -428.622)" opacity="0.1"/>
        <path id="Path_234" data-name="Path 234" d="M538.571,412.206s-18.139,2.863-22.419,5.671-12.761,8.234-12.761,19.87-1.984,23.558-3.122,26.959,17.88,30.933,17.88,30.933l-6.816,41.724s27.266-.852,36.346,0,40.851-14.192,40.851-14.192,18.732-9.932,22.706-10.225-7.948-21.854-7.948-21.854-18.452-34.9-15.33-40.579a78.432,78.432,0,0,0,5.412-13.906l-3.408-28.943s-5.105-1.7-9.366,1.418-18.732,1.418-18.732,1.418Z" transform="translate(-492.826 -338.954)" fill="#ff6484"/>
        <path id="Path_235" data-name="Path 235" d="M503.846,497.842l-7.116,1.984-1.97,26.707s2.556,7.1,0,9.366-3.122,50.8-3.122,50.8,8.234,5.958,17.88,1.418c0,0-1.418-5.392,2.843-24.976s4.253-29.515,4.253-29.515,0-24.41,1.99-28.384,0-13.906,0-13.906-3.974-5.392-3.695-7.375S503.846,497.842,503.846,497.842Z" transform="translate(-488.89 -374.073)" opacity="0.1"/>
        <path id="Path_236" data-name="Path 236" d="M509.631,671.4a18.126,18.126,0,0,1-12.794-.464,37.1,37.1,0,0,1,1.82-4.254L506.373,662S507.975,666.019,509.631,671.4Z" transform="translate(-491.274 -455.789)" opacity="0.1"/>
        <path id="Path_237" data-name="Path 237" d="M503.058,497.819l-7.1,1.984-1.984,26.707s2.556,7.1,0,9.366-3.122,50.8-3.122,50.8,8.241,5.951,17.88,1.39c0,0-1.418-5.392,2.836-24.976s4.26-29.516,4.26-29.516,0-24.41,1.984-28.384,0-13.906,0-13.906-3.974-5.392-3.688-7.376S503.058,497.819,503.058,497.819Z" transform="translate(-488.532 -374.05)" fill="#ff6484"/>
        <path id="Path_238" data-name="Path 238" d="M635.316,517.6s-3.688,31.785-14.478,37.75C620.838,555.346,644.961,548.536,635.316,517.6Z" transform="translate(-548.133 -389.573)" opacity="0.1"/>
        <path id="Path_239" data-name="Path 239" d="M547.469,522.845s13.333,6.523,10.225,11.063S547.469,522.845,547.469,522.845Z" transform="translate(-514.491 -391.98)" opacity="0.1"/>
        <path id="Path_240" data-name="Path 240" d="M547.469,546.953s8.514,8.8,6.817,11.922S547.469,546.953,547.469,546.953Z" transform="translate(-514.491 -403.035)" opacity="0.1"/>
        <path id="Path_241" data-name="Path 241" d="M674.3,412.251s3.34,5.671,3.66,9.366S674.3,412.251,674.3,412.251Z" transform="translate(-572.649 -341.269)" opacity="0.1"/>
        <path id="Path_242" data-name="Path 242" d="M674.3,397.565s1.677-1.425,5.958,0S674.3,397.565,674.3,397.565Z" transform="translate(-572.649 -334.245)" opacity="0.1"/>
        <path id="Path_243" data-name="Path 243" d="M623.1,699.316a39.468,39.468,0,0,1-20.756-2.659l-3.579,9.161-.4-4.24c.586-3.558,1.725-7.369,3.974-8.33C602.341,693.25,610.22,699.528,623.1,699.316Z" transform="translate(-537.829 -470.116)" opacity="0.1"/>
        <path id="Path_244" data-name="Path 244" d="M536.517,726.472s17.457,3.619,22.351,2.979Z" transform="translate(-509.469 -485.35)" opacity="0.1"/>
        <path id="Path_245" data-name="Path 245" d="M539.866,734.895s7.45-.32,11.172,1.172Z" transform="translate(-511.005 -489.199)" opacity="0.1"/>
        <path id="Path_246" data-name="Path 246" d="M541.439,740.622a66.8,66.8,0,0,0,10.32,1.363Z" transform="translate(-511.726 -491.838)" opacity="0.1"/>
        <path id="Path_247" data-name="Path 247" d="M540.646,811.018c.32-.211,14.9-3.62,16.714-1.172Z" transform="translate(-511.363 -523.176)" opacity="0.1"/>
        <path id="Path_248" data-name="Path 248" d="M540.646,820.453s12.665-1.493,12.985,0S540.646,820.453,540.646,820.453Z" transform="translate(-511.363 -528.139)" opacity="0.1"/>
        <path id="Path_249" data-name="Path 249" d="M540.646,826.6s13.517-2.795,15.112-2.113S540.646,826.6,540.646,826.6Z" transform="translate(-511.363 -530.244)" opacity="0.1"/>
        <path id="Path_250" data-name="Path 250" d="M528.853,999.785l-15.323,10.538s.089-1.234.239-3.047a41.311,41.311,0,0,1,7.846-12.808c3.456-.9,5.637-.068,6.994,1.561C528.662,998.292,528.853,999.785,528.853,999.785Z" transform="translate(-498.929 -608.066)" opacity="0.1"/>
        <path id="Path_251" data-name="Path 251" d="M524.822,1009.608a38.031,38.031,0,0,0-3.2,15.678,24.312,24.312,0,0,1-3.245,12.617,12.424,12.424,0,0,1-1.077,1.541s-10.647-.089-14.376-3.177a3.687,3.687,0,0,1-1-1.227c-2.134-4.254,4.151-20.538,4.151-20.538,3.3-12.556,10-19.264,10-19.264C528.013,992.151,524.822,1009.608,524.822,1009.608Z" transform="translate(-493.405 -608.421)" fill="#444053"/>
        <path id="Path_252" data-name="Path 252" d="M519.6,1054.556a12.416,12.416,0,0,1-1.077,1.541s-10.647-.089-14.376-3.176c1.834-6.067,7.682-24.424,10.423-21.3C517.15,1034.549,518.943,1048.652,519.6,1054.556Z" transform="translate(-494.628 -625.107)" opacity="0.1"/>
        <path id="Path_253" data-name="Path 253" d="M529.367,1032.751l-.743,27.5H532.2s.579-24.124,2.174-27.5S529.367,1032.751,529.367,1032.751Z" transform="translate(-505.85 -625.101)" fill="#444053"/>
        <path id="Path_254" data-name="Path 254" d="M600.007,1021.846s-15.644-14.792-14.049-15.964c.429-.314.852-1.575,1.241-3.252,3.006-.525,8.18.729,12.461,12.74C599.761,1018.778,600.007,1021.846,600.007,1021.846Z" transform="translate(-532.087 -611.933)" opacity="0.1"/>
        <path id="Path_255" data-name="Path 255" d="M598.955,1038.708a1.607,1.607,0,0,1-.375.109c-1.84.321-8.623.136-12.42,0a2.686,2.686,0,0,1-2.6-2.679c0-1.023,0-2.27-.082-3.6-.177-4.2-.682-9.2-2.188-10.32-2.665-2.045-4.772-8.984,0-17.771,0,0,9.148-6.987,15.746,14.015,0,0,.641,5.992,3.511,8.119S600.236,1038.1,598.955,1038.708Z" transform="translate(-528.697 -612.3)" fill="#444053"/>
        <path id="Path_256" data-name="Path 256" d="M602.815,1053.8c-1.84.32-8.623.136-12.42,0a2.686,2.686,0,0,1-2.6-2.679c0-1.022,0-2.27-.082-3.6,1.152-5.085,2.808-10.32,4.942-11.513C592.672,1036,599.127,1035.269,602.815,1053.8Z" transform="translate(-532.946 -627.279)" opacity="0.1"/>
        <path id="Path_257" data-name="Path 257" d="M533.093,1006.2l1.718,22.883h2.181v-24.833Z" transform="translate(-479.338 -598.091)" fill="#444053"/>
        <path id="Path_258" data-name="Path 258" d="M562.794,301.009a39.14,39.14,0,0,0-17.464,5.61,7.258,7.258,0,0,0-3.292,3.306,10.96,10.96,0,0,0-.266,4.09c.184,11.738-12.9,20.62-12.495,32.351.164,4.656,2.5,8.991,2.931,13.633.716,7.744-3.865,14.867-8.255,21.281a17.628,17.628,0,0,0,12.44-4.124,94.334,94.334,0,0,1,1.738,47.545h6.278a4.77,4.77,0,0,1,1.834.225,4.608,4.608,0,0,1,1.452,1.084c5.869,5.842,9.8,14.478,7.56,22.454l13.36-5.01a39.689,39.689,0,0,0,9.223-4.4,13.319,13.319,0,0,0,5.7-8.214c.361-2.045.245-4.485,1.929-5.671a10.5,10.5,0,0,1,2.631-.975c3.667-1.3,5.29-5.535,6.039-9.352a53.853,53.853,0,0,0,.852-14.226c-.593-7.975-2.952-16.073-1.009-23.858,1.1-4.369,3.538-8.439,3.735-12.951.32-7.437-5.494-13.844-6.36-21.24-.607-5.153,1.254-10.368.648-15.521a16.673,16.673,0,0,0-8.773-12.658c-1.643-.845-3.408-1.411-5.031-2.345-3.7-2.147-6.067-6.012-9.427-8.671s-8.957-3.66-11.486-.2Z" transform="translate(-503.708 -290.237)" opacity="0.1"/>
        <path id="Path_259" data-name="Path 259" d="M562.794,299.424a39.14,39.14,0,0,0-17.464,5.61,7.257,7.257,0,0,0-3.292,3.306,10.96,10.96,0,0,0-.266,4.09c.184,11.738-12.9,20.62-12.495,32.358.164,4.649,2.5,8.984,2.931,13.633.716,7.744-3.865,14.867-8.255,21.288a17.722,17.722,0,0,0,12.44-4.124,94.3,94.3,0,0,1,1.738,47.532h6.278a4.771,4.771,0,0,1,1.834.232,4.486,4.486,0,0,1,1.452,1.077c5.869,5.849,9.8,14.478,7.559,22.454l13.36-5.01a39.692,39.692,0,0,0,9.223-4.4,13.318,13.318,0,0,0,5.7-8.214c.361-2.045.245-4.485,1.929-5.671a10.5,10.5,0,0,1,2.631-.975c3.667-1.3,5.29-5.535,6.039-9.352a53.852,53.852,0,0,0,.873-14.24c-.593-7.975-2.952-16.073-1.009-23.858,1.1-4.369,3.538-8.439,3.736-12.951.32-7.437-5.494-13.844-6.36-21.24-.607-5.153,1.254-10.361.647-15.521a16.686,16.686,0,0,0-8.773-12.658c-1.643-.845-3.408-1.411-5.031-2.338-3.7-2.154-6.067-6.019-9.427-8.677s-8.957-3.66-11.486-.2Z" transform="translate(-503.708 -289.504)" fill="#925978"/>
        <g id="Group_21" data-name="Group 21" transform="translate(20.245 20.09)" opacity="0.1">
          <path id="Path_260" data-name="Path 260" d="M556.8,318.262a7.6,7.6,0,0,0-.041.791C556.78,318.794,556.794,318.528,556.8,318.262Z" transform="translate(-538.996 -318.262)"/>
          <path id="Path_261" data-name="Path 261" d="M648.283,359.477c.245-3.613,1.05-7.239.75-10.838C648.808,352.252,648,355.878,648.283,359.477Z" transform="translate(-580.936 -332.191)"/>
          <path id="Path_262" data-name="Path 262" d="M536.71,391.327c-.4-4.226-2.365-8.18-2.829-12.4a15.56,15.56,0,0,0-.1,2.331c.164,4.6,2.447,8.9,2.911,13.483A18.406,18.406,0,0,0,536.71,391.327Z" transform="translate(-528.455 -346.079)"/>
          <path id="Path_263" data-name="Path 263" d="M652.737,422.842a29.235,29.235,0,0,0-.682,8.466,25.68,25.68,0,0,1,.682-4.915c1.1-4.369,3.538-8.439,3.736-12.951a14.039,14.039,0,0,0-.109-2.4C655.832,415.1,653.712,418.875,652.737,422.842Z" transform="translate(-582.664 -360.805)"/>
          <path id="Path_264" data-name="Path 264" d="M536.393,433.514a17.724,17.724,0,0,1-10.061,4.09c-.777,1.213-1.581,2.4-2.379,3.572a17.723,17.723,0,0,0,12.44-4.124,94.069,94.069,0,0,1,3.967,25.528A94.283,94.283,0,0,0,536.393,433.514Z" transform="translate(-523.953 -371.109)"/>
          <path id="Path_265" data-name="Path 265" d="M620.681,495.88c-.75,3.817-2.372,8.057-6.039,9.345a10.228,10.228,0,0,0-2.631.982c-1.684,1.186-1.568,3.64-1.929,5.671a13.149,13.149,0,0,1-5.7,8.18,40.985,40.985,0,0,1-9.223,4.4l-12.747,4.772a17.584,17.584,0,0,1-.613,3.783l13.36-5.01a39.693,39.693,0,0,0,9.223-4.4,13.319,13.319,0,0,0,5.7-8.214c.361-2.045.245-4.485,1.929-5.671a10.5,10.5,0,0,1,2.631-.975c3.667-1.3,5.29-5.535,6.039-9.352a53.46,53.46,0,0,0,.961-12.065A53.393,53.393,0,0,1,620.681,495.88Z" transform="translate(-550.478 -395.786)"/>
          <path id="Path_266" data-name="Path 266" d="M559.763,522.579a4.507,4.507,0,0,0-1.452-1.084,4.876,4.876,0,0,0-1.834-.232h-5.569c-.218,1.186-.45,2.372-.682,3.552H556.5a4.773,4.773,0,0,1,1.834.232,4.485,4.485,0,0,1,1.452,1.077c4.294,4.281,7.546,10.047,8.1,15.964C568.583,535.012,564.916,527.732,559.763,522.579Z" transform="translate(-536 -411.34)"/>
        </g>
        <path id="Path_267" data-name="Path 267" d="M510.319,565.8s5.072-2.127,6.2,0S510.319,565.8,510.319,565.8Z" transform="translate(-497.457 -411.245)" opacity="0.1"/>
        <path id="Path_268" data-name="Path 268" d="M513.63,572.539s5.072-2.127,6.21,0S513.63,572.539,513.63,572.539Z" transform="translate(-498.975 -414.333)" opacity="0.1"/>
      </g>
      <g id="leaves" transform="translate(489.066 5.875)">
        <path id="Path_269" data-name="Path 269" d="M1074.535,65.031s-25.937-1.561-22.876,16.612a4.433,4.433,0,0,0,2.3,4.669s.048-1.363,2.659-.893a11.936,11.936,0,0,0,2.815.136,5.843,5.843,0,0,0,3.436-1.425h0s7.287-3.006,10.122-14.921c0,0,2.1-2.6,2.045-3.272l-4.376,1.875s1.493,3.156.313,5.78c0,0-.136-5.671-.982-5.535-.17,0-2.27,1.091-2.27,1.091s2.57,5.5.627,9.5c0,0,.736-6.776-1.432-9.1l-3.095,1.834s3.006,5.678.968,10.313c0,0,.525-7.11-1.616-9.877L1060.385,74s2.829,5.569,1.124,9.414c0,0-.225-8.282-1.711-8.9a16.854,16.854,0,0,0-2.808,3.04s1.929,4.09.729,6.2c0,0-.736-5.508-1.364-5.535,0,0-2.433,3.654-2.685,6.135a13.3,13.3,0,0,1,2.093-6.51,7.273,7.273,0,0,0-3.722,1.936s.375-2.583,4.322-2.815c0,0,2.011-2.768,2.549-2.938,0,0-3.926-.327-6.305.729,0,0,2.093-2.44,7.028-1.363l2.727-2.249s-5.167-.682-7.362.075c0,0,2.522-2.154,8.1-.586l3-1.793a26.928,26.928,0,0,0-7.028-.607s2.767-1.493,7.907.123l2.147-.961s-3.231-.634-4.172-.736-1-.361-1-.361a11.151,11.151,0,0,1,6.06.682S1074.61,65.318,1074.535,65.031Z" transform="translate(-999.726 -50.294)" fill="#17b0c3" opacity="0.1"/>
        <path id="Path_270" data-name="Path 270" d="M1014.975,37.842s-21.813,14.117-8.582,26.939a4.436,4.436,0,0,0,4.622,2.4s-.763-1.118,1.616-2.3a11.836,11.836,0,0,0,2.352-1.561,5.869,5.869,0,0,0,1.929-3.183h0s4.09-6.748-.681-18.023c0,0,.15-3.34-.314-3.831l-2.413,4.09s3.074,1.656,3.681,4.465c0,0-3.469-4.478-4.09-3.872-.123.123-1.186,2.229-1.186,2.229s5.337,2.9,6.135,7.273c0,0-3.408-5.9-6.551-6.476l-1.418,3.272s5.794,2.795,6.9,7.737c0,0-3.8-6.039-7.157-7l-.954,3.408s5.59,2.836,6.483,6.953c0,0-5.085-6.53-6.653-6.135a17.273,17.273,0,0,0-.463,4.09s3.967,2.127,4.267,4.567c0,0-3.858-4-4.356-3.667,0,0,.2,4.383,1.479,6.551a13.312,13.312,0,0,1-2.168-6.483,7.294,7.294,0,0,0-1.854,3.763s-1.227-2.3,1.82-4.826c0,0,0-3.408.307-3.879,0,0-3.354,2.045-4.649,4.322,0,0,.245-3.2,4.874-5.235l.886-3.442s-4.581,2.495-5.883,4.424c0,0,.757-3.231,6.176-5.276l1.363-3.224a27.74,27.74,0,0,0-6.026,3.681s1.363-2.849,6.448-4.588l1.159-2.045s-2.979,1.4-3.8,1.881-1.016.3-1.016.3a11.172,11.172,0,0,1,5.283-3.047S1015.207,38.033,1014.975,37.842Z" transform="translate(-977.132 -37.842)" fill="#17b0c3" opacity="0.1"/>
        <path id="Path_271" data-name="Path 271" d="M960.607,68.168s-13.04,22.494,4.567,27.9a4.4,4.4,0,0,0,5.208,0s-1.179-.641.4-2.774a11.935,11.935,0,0,0,1.363-2.454,5.889,5.889,0,0,0,.279-3.715h0s.58-7.866-8.793-15.753c0,0-1.363-3.04-2.045-3.265l-.293,4.772s3.49.082,5.31,2.311c0,0-5.126-2.42-5.385-1.609-.055.164-.048,2.522-.048,2.522s6.128.184,8.855,3.715c0,0-5.726-3.7-8.773-2.8l.218,3.558s6.428-.136,9.652,3.77c0,0-6.135-3.66-9.543-2.992l.682,3.47s6.271,0,8.93,3.258c0,0-7.5-3.517-8.718-2.474a16.849,16.849,0,0,0,1.452,3.879s4.5.1,5.876,2.134c0,0-5.256-1.82-5.549-1.288,0,0,2.174,3.81,4.294,5.16a13.313,13.313,0,0,1-4.874-4.772,7.3,7.3,0,0,0,.055,4.192s-2.14-1.493-.573-5.126c0,0-1.568-3.04-1.479-3.592,0,0-2.045,3.361-2.181,5.958,0,0-1.241-2.965,1.963-6.871l-.77-3.476s-2.952,4.3-3.238,6.612c0,0-.791-3.224,3.115-7.5l-.259-3.483a27.215,27.215,0,0,0-3.694,6.012s-.1-3.149,3.661-7.014l.1-2.352s-2.045,2.6-2.529,3.408-.77.7-.77.7a11.219,11.219,0,0,1,3.326-5.119S960.893,68.229,960.607,68.168Z" transform="translate(-955.96 -51.719)" fill="#17b0c3" opacity="0.1"/>
      </g>
      <path id="Path_272" data-name="Path 272" d="M1147.164,476.973a9.754,9.754,0,1,0,9.754,9.754A9.755,9.755,0,0,0,1147.164,476.973Zm-28.52-76.543v9.754h9.754l17.559,35.569-7.342,11.949a9.382,9.382,0,0,0-1.22,4.635c0,6.53,4.465,9.755,10.518,9.755h57.034v-9.379h-55.841a1.152,1.152,0,0,1-1.22-1.22,6.145,6.145,0,0,1,.518-1.213l4.874-7.7h36.339a9.543,9.543,0,0,0,8.534-5.119l17.566-30.2a5.666,5.666,0,0,0,.491-2.44,4.69,4.69,0,0,0-4.88-4.635h-72.194l-4.635-9.754Zm76.543,76.543a9.754,9.754,0,1,0,9.761,9.757A9.754,9.754,0,0,0,1195.186,476.973Z" transform="translate(-541.49 -198.226)" fill="#17b0c3"/>
      <path id="Path_273" data-name="Path 273" d="M1165.158,416.327h-8.18v-8.18h-6.135v8.18h-8.18v6.135h8.18v8.18h6.135v-8.18h8.18Z" transform="translate(-523.942 -187.136)" fill="#fff"/>
    </g>
  </g>
</svg>
